<?xml version="1.0" encoding="UTF-8" standalone="no"?>
<!-- Created with Inkscape (http://www.inkscape.org/) -->

<svg
   width="48"
   height="48"
   viewBox="0 0 48 48"
   version="1.1"
   id="svg1"
   xml:space="preserve"
   inkscape:version="1.4.2 (ebf0e940d0, 2025-05-08)"
   sodipodi:docname="prion.svg"
   xmlns:inkscape="http://www.inkscape.org/namespaces/inkscape"
   xmlns:sodipodi="http://sodipodi.sourceforge.net/DTD/sodipodi-0.dtd"
   xmlns="http://www.w3.org/2000/svg"
   xmlns:svg="http://www.w3.org/2000/svg"><sodipodi:namedview
     id="namedview1"
     pagecolor="#ffffff"
     bordercolor="#000000"
     borderopacity="0.25"
     inkscape:showpageshadow="2"
     inkscape:pageopacity="0.0"
     inkscape:pagecheckerboard="0"
     inkscape:deskcolor="#d1d1d1"
     inkscape:document-units="px"
     inkscape:zoom="13.5625"
     inkscape:cx="20.571429"
     inkscape:cy="31.373272"
     inkscape:window-width="1536"
     inkscape:window-height="902"
     inkscape:window-x="0"
     inkscape:window-y="0"
     inkscape:window-maximized="1"
     inkscape:current-layer="layer1" /><defs
     id="defs1" /><g
     inkscape:label="Layer 1"
     inkscape:groupmode="layer"
     id="layer1"><path
       d="m 32.879089,19.599201 c -0.391102,-0.420909 -0.941431,-0.547988 -2.429909,-0.569573 -1.058047,-0.01528 -2.054713,0.100866 -2.218425,0.261915 -0.16371,0.161022 -0.524634,0.756802 -0.800612,1.321693 -0.258753,0.529566 -0.526406,0.965206 -0.61614,1.017523 0,0 -0.0037,0.0037 -0.0037,0.0037 0,0 -0.0037,0.0037 -0.0037,0.0037 0,0 -0.0037,-0.0037 -0.0037,-0.0037 0,0 -0.0037,0.0037 -0.0037,0.0037 0,0 -0.0074,-6e-5 -0.0074,-6e-5 0,0 -0.0037,-0.0037 -0.0037,-0.0037 -0.08282,-0.04775 -0.294103,-0.444528 -0.48372,-0.91743 -0.202286,-0.504405 -0.538104,-1.09014 -0.749815,-1.305374 -0.452193,-0.459724 -4.170163,-0.437812 -4.651098,0.02711 -0.172221,0.166477 -0.510052,0.756357 -0.753214,1.311169 -0.227976,0.520136 -0.482534,0.94834 -0.590518,0.999538 0,0 -0.0037,0.0037 -0.0037,0.0037 0,0 -0.0074,-6.4e-5 -0.0074,-6.4e-5 0,0 -0.0037,0.0037 -0.0037,0.0037 0,0 -0.0074,-6e-5 -0.0074,-6e-5 0,0 -0.0037,-0.0037 -0.0037,-0.0037 0,0 -0.0037,0.0037 -0.0037,0.0037 0,0 -0.0037,-0.0037 -0.0037,-0.0037 -0.09763,-0.04121 -0.273483,-0.379827 -0.397463,-0.785703 -0.427132,-1.398404 -1.038682,-1.75664 -3.132631,-1.849088 -1.826417,-0.08063 -1.962321,-0.04443 -2.494798,0.678133 -0.309703,0.420245 -1.06787,2.209329 -1.684991,3.974639 -0.617121,1.765309 -1.360258,3.551956 -1.652214,3.971265 l -0.53032,0.759846 2.151123,-0.04411 c 2.362204,-0.05362 3.156589,-0.509003 3.674637,-2.091315 0.307332,-0.938706 0.369077,-0.898955 1.08929,0.740461 l 0.550064,1.256417 1.837749,0.0042 c 2.17377,0.0045 3.019429,-0.439158 3.673318,-1.931199 0.235381,-0.537068 0.347316,-0.789518 0.432692,-0.837084 0.0024,-0.001 0.01212,-0.0063 0.01476,-0.0071 0,0 0.0074,6e-5 0.0074,6e-5 0,0 0.0074,6.3e-5 0.0074,6.3e-5 0,0 0.0074,6.1e-5 0.0074,6.1e-5 0,0 0.0074,6.1e-5 0.0074,6.1e-5 0.0022,8.77e-4 0.01238,0.0063 0.01476,0.0074 0.0022,0.0015 0.0087,0.0092 0.0108,0.01107 0.03865,0.03734 0.08292,0.124318 0.132618,0.24492 0.101999,0.247528 0.410281,0.927071 0.686241,1.512287 l 0.500681,1.066774 1.831134,-0.07586 c 2.208709,-0.09441 2.779739,-0.392812 3.46124,-1.809221 0.268834,-0.558749 0.534188,-1.02409 0.61301,-1.079417 0,0 0.0037,-0.0037 0.0037,-0.0037 0,0 0.0037,-0.0037 0.0037,-0.0037 0,0 0.0037,0.0037 0.0037,0.0037 0,0 0.0037,-0.0037 0.0037,-0.0037 0,0 0.0037,0.0037 0.0037,0.0037 0.06658,0.04514 0.232798,0.420969 0.378577,0.869247 0.454636,1.398057 1.493042,1.982999 3.426754,1.927936 0.901828,-0.02556 2.222336,-0.06084 2.933825,-0.07768 1.007932,-0.02398 1.292921,-0.125055 1.295693,-0.45876 0.0026,-0.333723 -0.299197,-0.433585 -1.379132,-0.455363 -1.344293,-0.02709 -1.399395,-0.05296 -1.736111,-0.854978 -0.190956,-0.454818 -0.406978,-1.164257 -0.481919,-1.576106 -0.289824,-1.592733 -1.432893,-4.723365 -1.914619,-5.241667 z m -0.700509,0.66021 c 0.126135,0.139521 0.229373,0.354038 0.383739,0.683703 0.236145,0.504218 0.726893,2.045854 1.088953,3.42618 0.362059,1.380326 0.734336,2.588631 0.829403,2.685281 0,0 0.0037,0.0037 0.0037,0.0037 0,0 0.0037,0.0037 0.0037,0.0037 0,0 0.0037,0.0037 0.0037,0.0037 0,0 0.0037,0.0037 0.0037,0.0037 0,0 -6.1e-5,0.0074 -6.1e-5,0.0074 0,0 0.0037,0.0037 0.0037,0.0037 0,0 -0.0037,0.0037 -0.0037,0.0037 0,0 -6.3e-5,0.0074 -6.3e-5,0.0074 0,0 -0.0037,0.0037 -0.0037,0.0037 0,0 -6e-5,0.0074 -6e-5,0.0074 -0.06274,0.07315 -0.414456,0.132143 -0.881821,0.138282 -0.636093,0.0084 -1.222329,-0.167425 -1.495637,-0.449044 -0.344297,-0.354914 -2.089547,-5.848443 -2.142414,-6.742893 0,0 -0.0037,-0.0037 -0.0037,-0.0037 0,0 0.0037,-0.0037 0.0037,-0.0037 0,0 0.0037,-0.0037 0.0037,-0.0037 0,0 6.1e-5,-0.0074 6.1e-5,-0.0074 0.0013,-0.0013 0.0095,-0.0095 0.01107,-0.0108 0.09733,-0.06912 0.540269,-0.09776 1.063169,-0.064 0.651172,0.04203 0.918942,0.07167 1.129278,0.304093 z m -3.341144,0.04522 c 0.135068,0.113645 0.291882,0.588436 0.6199,1.613635 0.456214,1.425856 0.445069,1.700282 -0.131326,3.124972 -0.774041,1.913192 -1.209104,2.365822 -2.239099,2.325149 -0.42563,-0.01686 -0.81592,-0.06524 -0.879781,-0.109166 0,0 -0.0037,-0.0037 -0.0037,-0.0037 -0.102685,-0.104397 1.883677,-5.897395 2.259733,-6.590104 0.129166,-0.237937 0.218886,-0.383184 0.305242,-0.386878 0.01871,0.0018 0.04962,0.0097 0.06893,0.02609 z m -3.868057,-0.05014 c 0.0045,0.0037 0.0071,0.0071 0.0108,0.01107 0.456009,0.4636 1.236792,3.36957 1.083904,4.037522 -0.0849,0.37086 -0.368273,1.149538 -0.625634,1.727086 -0.602642,1.352296 -0.734327,1.204915 -1.50408,-1.631843 -0.332795,-1.226458 -0.749069,-2.647581 -0.920115,-3.159126 -0.171035,-0.511541 -0.320511,-0.987802 -0.333346,-1.058116 0,0 6.1e-5,-0.0074 6.1e-5,-0.0074 0,0 0.0037,-0.0037 0.0037,-0.0037 0,0 6.1e-5,-0.0074 6.1e-5,-0.0074 0,0 0.0037,-0.0037 0.0037,-0.0037 0,0 6e-5,-0.0074 6e-5,-0.0074 0,0 0.0037,-0.0037 0.0037,-0.0037 0,0 0.0037,-0.0037 0.0037,-0.0037 0.192984,-0.182076 2.00001,-0.109957 2.273585,0.109746 z m -3.418612,0.171931 c 0.149929,0.112619 0.427825,0.74201 0.657254,1.49749 0.403322,1.328162 0.389162,1.711793 -0.120207,3.099589 -0.705937,1.923397 -1.029808,2.272118 -2.206547,2.3509 -0.469802,0.03146 -0.891103,0.02669 -0.975232,-0.0082 0,0 -0.0074,-6.3e-5 -0.0074,-6.3e-5 0,0 -0.0037,-0.0037 -0.0037,-0.0037 0,0 -0.0037,-0.0037 -0.0037,-0.0037 0,0 -0.0037,-0.0037 -0.0037,-0.0037 0,0 0.0037,-0.0037 0.0037,-0.0037 -0.07742,-0.358407 2.313494,-6.739672 2.601068,-6.940285 0,0 0.0074,6.1e-5 0.0074,6.1e-5 0,0 0.0037,-0.0037 0.0037,-0.0037 0,0 0.0037,-0.0037 0.0037,-0.0037 0,0 0.0037,0.0037 0.0037,0.0037 0.0023,6.74e-4 0.01581,0.0029 0.01818,0.004 0.0047,0.0026 0.0166,0.0108 0.02187,0.01476 z m -3.825389,0.07396 c 0.289558,0.301141 0.501575,0.853927 0.825367,1.851875 0.474925,1.463791 0.470896,1.754944 -0.06216,3.121905 -0.323252,0.828948 -0.639434,1.552969 -0.701123,1.613649 -0.257726,0.25351 -0.579913,-0.627816 -1.740304,-4.756217 l -0.608117,-2.159415 1.000918,-0.01713 c 0.627967,-0.0082 0.995838,0.04429 1.285418,0.345414 z m -3.312869,0.147347 c 0.346737,0.352507 0.868393,2.181488 0.845345,2.958353 -0.02108,0.711905 -0.994625,3.064571 -1.455593,3.517992 -0.185343,0.182312 -0.760249,0.314603 -1.283428,0.295099 l -0.95316,-0.037 1.088035,-3.077044 c 1.40709,-3.978328 1.41847,-4.003415 1.758801,-3.657419 z"
       id="path2"
       style="stroke-width:0.235;fill:#ff9955;stroke-dasharray:none" /></g></svg>
