<?xml version="1.0" encoding="UTF-8" standalone="no"?>
<!-- Created with Inkscape (http://www.inkscape.org/) -->

<svg
   width="50mm"
   height="50mm"
   viewBox="0 0 50 50"
   version="1.1"
   id="svg1"
   inkscape:version="1.4 (e7c3feb100, 2024-10-09)"
   sodipodi:docname="currency.svg"
   xmlns:inkscape="http://www.inkscape.org/namespaces/inkscape"
   xmlns:sodipodi="http://sodipodi.sourceforge.net/DTD/sodipodi-0.dtd"
   xmlns:xlink="http://www.w3.org/1999/xlink"
   xmlns="http://www.w3.org/2000/svg"
   xmlns:svg="http://www.w3.org/2000/svg">
  <sodipodi:namedview
     id="namedview1"
     pagecolor="#ffffff"
     bordercolor="#000000"
     borderopacity="0.25"
     inkscape:showpageshadow="2"
     inkscape:pageopacity="0.0"
     inkscape:pagecheckerboard="0"
     inkscape:deskcolor="#d1d1d1"
     inkscape:document-units="mm"
     inkscape:zoom="2.67"
     inkscape:cx="96.254682"
     inkscape:cy="77.715356"
     inkscape:window-width="1536"
     inkscape:window-height="902"
     inkscape:window-x="0"
     inkscape:window-y="0"
     inkscape:window-maximized="1"
     inkscape:current-layer="layer1" />
  <defs
     id="defs1">
    <linearGradient
       id="linearGradient267"
       inkscape:collect="always">
      <stop
         style="stop-color:#fffe1a;stop-opacity:1;"
         offset="0"
         id="stop266" />
      <stop
         style="stop-color:#bfc323;stop-opacity:1;"
         offset="1"
         id="stop267" />
    </linearGradient>
    <linearGradient
       id="linearGradient261"
       inkscape:collect="always">
      <stop
         style="stop-color:#fffe1a;stop-opacity:1;"
         offset="0"
         id="stop261" />
      <stop
         style="stop-color:#d7d623;stop-opacity:1;"
         offset="1"
         id="stop262" />
    </linearGradient>
    <radialGradient
       inkscape:collect="always"
       xlink:href="#linearGradient261"
       id="radialGradient262"
       cx="25.324552"
       cy="25.000024"
       fx="25.324552"
       fy="25.000024"
       r="18.098637"
       gradientUnits="userSpaceOnUse"
       gradientTransform="matrix(0.9123958,0,0,0.9123958,1.8939694,2.1900829)" />
    <radialGradient
       inkscape:collect="always"
       xlink:href="#linearGradient209"
       id="radialGradient210"
       cx="25"
       cy="25"
       fx="25"
       fy="25"
       r="5.0319529"
       gradientUnits="userSpaceOnUse"
       gradientTransform="matrix(1.5010383,0,0,1.5010383,-12.525957,-12.525957)" />
    <linearGradient
       id="linearGradient209"
       inkscape:collect="always">
      <stop
         style="stop-color:#ffff1a;stop-opacity:1;"
         offset="0"
         id="stop209" />
      <stop
         style="stop-color:#1a1a1a;stop-opacity:0.42723915;"
         offset="0.67436707"
         id="stop210" />
      <stop
         style="stop-color:#1a1a1a;stop-opacity:0.42745098;"
         offset="0.99274027"
         id="stop211" />
    </linearGradient>
    <radialGradient
       inkscape:collect="always"
       xlink:href="#linearGradient267"
       id="radialGradient265"
       gradientUnits="userSpaceOnUse"
       cx="25.324552"
       cy="25.000024"
       fx="25.324552"
       fy="25.000024"
       r="18.098637"
       gradientTransform="matrix(1.0700289,0,0,1.0700289,-1.7734499,-1.7715299)" />
  </defs>
  <g
     inkscape:label="Layer 1"
     inkscape:groupmode="layer"
     id="layer1"
     style="opacity:1;mix-blend-mode:normal">
    <path
       id="path265"
       style="display:none;mix-blend-mode:difference;fill:url(#radialGradient265);fill-opacity:1;stroke-width:0.172031"
       inkscape:transform-center-y="-0.7022673"
       d="m 24.58249,5.613154 c -0.743478,0 -1.342017,0.5985382 -1.342017,1.3420164 v 3.3846236 a 14.7635,14.7635 0 0 0 -6.959462,2.754258 l -2.227848,-2.227847 c -0.525718,-0.525718 -1.372014,-0.525718 -1.897734,0 l -1.049503,1.050057 c -0.525719,0.525718 -0.525719,1.372016 0,1.897734 l 2.19301,2.193012 a 14.7635,14.7635 0 0 0 -2.93618,6.888131 H 7.3005046 c -0.7434781,0 -1.3420163,0.598538 -1.3420163,1.342016 v 1.484126 c 0,0.743478 0.5985382,1.342016 1.3420163,1.342016 h 3.0622514 a 14.7635,14.7635 0 0 0 3.026864,7.009229 l -2.283694,2.283695 c -0.525719,0.525719 -0.525719,1.372568 0,1.898287 l 1.049503,1.049504 c 0.52572,0.525718 1.372016,0.525718 1.897734,0 l 2.349497,-2.348943 a 14.7635,14.7635 0 0 0 6.837813,2.663574 v 3.384623 c 0,0.743478 0.598539,1.342016 1.342017,1.342016 h 1.484125 c 0.743478,0 1.342017,-0.598538 1.342017,-1.342016 v -3.395131 c 0,-0.02924 -0.0026,-0.0575 -0.0044,-0.08625 a 14.7635,14.7635 0 0 0 6.581798,-2.891391 c 0.05697,0.09711 0.125524,0.189667 0.209015,0.27316 l 2.400921,2.400367 c 0.525719,0.525719 1.372015,0.525719 1.897735,0 l 1.050056,-1.049504 c 0.525718,-0.525718 0.525718,-1.372568 0,-1.898287 l -2.400914,-2.400372 c -0.09569,-0.09569 -0.202102,-0.173595 -0.315183,-0.234452 a 14.7635,14.7635 0 0 0 2.768082,-6.707317 c 0.114043,0.03132 0.234056,0.04922 0.358313,0.04922 H 43.3486 c 0.743478,0 1.342016,-0.598538 1.342016,-1.342016 v -1.484125 c 0,-0.743479 -0.598538,-1.342017 -1.342016,-1.342017 h -3.394577 c -0.123834,0 -0.243511,0.01755 -0.357207,0.04866 A 14.7635,14.7635 0 0 0 36.962549,16.36478 c 0.06315,-0.04438 0.123735,-0.09388 0.180262,-0.150403 l 2.400921,-2.400369 c 0.525719,-0.525717 0.525719,-1.372016 0,-1.897733 l -1.050056,-1.050058 c -0.52572,-0.525718 -1.372016,-0.525718 -1.897735,0 l -2.40092,2.400921 c -0.03469,0.03469 -0.06665,0.07108 -0.09677,0.108379 a 14.7635,14.7635 0 0 0 -6.69294,-2.954427 c 0.0012,-0.02366 0.0033,-0.0468 0.0033,-0.07078 V 6.9551704 c 0,-0.7434782 -0.598538,-1.3420164 -1.342016,-1.3420164 z" />
    <path
       id="rect2"
       style="display:inline;opacity:1;fill:url(#radialGradient262);fill-opacity:1;stroke-width:0.146688"
       inkscape:transform-center-y="-13.9215"
       d="m 24.367241,8.4868798 c -0.633952,0 -1.144315,0.5103636 -1.144315,1.144315 v 2.8860122 a 12.58859,12.58859 0 0 0 -5.934219,2.34851 L 15.389059,12.96607 c -0.448271,-0.448272 -1.169894,-0.448272 -1.618166,0 l -0.894894,0.895366 c -0.448272,0.448271 -0.448272,1.169894 0,1.618165 l 1.869943,1.869945 a 12.58859,12.58859 0 0 0 -2.503631,5.873395 H 9.6311793 c -0.6339514,0 -1.144315,0.510363 -1.144315,1.144315 v 1.265489 c 0,0.633951 0.5103636,1.144315 1.144315,1.144315 h 2.6111317 a 12.58859,12.58859 0 0 0 2.580956,5.976653 l -1.947268,1.947268 c -0.448272,0.448272 -0.448272,1.170366 0,1.618637 l 0.894894,0.894896 c 0.448272,0.448271 1.169895,0.448271 1.618166,0 l 2.003377,-2.002905 a 12.58859,12.58859 0 0 0 5.83049,2.271185 v 2.886011 c 0,0.633952 0.510363,1.144315 1.144315,1.144315 h 1.265488 c 0.633952,0 1.144315,-0.510363 1.144315,-1.144315 v -2.89497 c 0,-0.02493 -0.0022,-0.04903 -0.0037,-0.07355 a 12.58859,12.58859 0 0 0 5.612189,-2.46544 c 0.04858,0.0828 0.107032,0.161726 0.178224,0.232918 l 2.047225,2.046754 c 0.448272,0.448271 1.169895,0.448271 1.618167,0 l 0.895366,-0.894895 c 0.448271,-0.448271 0.448271,-1.170366 0,-1.618638 l -2.047226,-2.046753 c -0.0816,-0.0816 -0.172329,-0.148022 -0.26875,-0.199914 A 12.58859,12.58859 0 0 0 37.168835,26.7351 c 0.09724,0.02671 0.199576,0.04196 0.305528,0.04196 h 2.894499 c 0.633952,0 1.144315,-0.510363 1.144315,-1.144315 v -1.265488 c 0,-0.633952 -0.510363,-1.144315 -1.144315,-1.144315 h -2.894499 c -0.105592,0 -0.207638,0.01496 -0.304585,0.04149 A 12.58859,12.58859 0 0 0 34.923542,17.6546 c 0.05384,-0.03784 0.105506,-0.08004 0.153706,-0.128247 L 37.124474,15.4796 c 0.448271,-0.448271 0.448271,-1.169895 0,-1.618166 l -0.895366,-0.895366 c -0.448272,-0.448272 -1.169895,-0.448272 -1.618167,0 l -2.047225,2.047224 c -0.02958,0.02958 -0.05683,0.06061 -0.08251,0.09241 a 12.58859,12.58859 0 0 0 -5.706959,-2.51919 c 0.001,-0.02018 0.0028,-0.0399 0.0028,-0.06035 V 9.6311948 c 0,-0.6339514 -0.510363,-1.144315 -1.144315,-1.144315 z"
       inkscape:transform-center-x="-2.055e-05" />
    <path
       id="path208"
       style="opacity:0.482;mix-blend-mode:luminosity;fill:#1a1a1a;fill-opacity:1;fill-rule:nonzero;stroke-width:0.281881;stroke-dasharray:none"
       d="m 24.201075,15.499118 c -4.072261,0.294317 -7.740321,3.493745 -8.51455,7.515546 -0.869905,3.768686 0.8703,7.939607 4.14681,9.988739 3.149437,2.11101 7.548701,2.010005 10.626473,-0.189491 3.444162,-2.322698 4.972453,-7.043876 3.541785,-10.944898 -1.260548,-3.767292 -5.078029,-6.486435 -9.058832,-6.393642 -0.247525,-0.0076 -0.494446,0.01616 -0.741686,0.02375 z m 0.821513,1.716089 c 3.7946,-0.06388 7.327488,3.053299 7.704547,6.83627 0.439579,3.361151 -1.569148,6.868425 -4.732133,8.122031 -2.877145,1.248543 -6.443274,0.500742 -8.59065,-1.780056 -2.611522,-2.601319 -2.907565,-7.124675 -0.631616,-10.030949 1.443496,-1.979887 3.810148,-3.128166 6.249852,-3.147296 z" />
    <circle
       style="opacity:0.288;mix-blend-mode:multiply;fill:url(#radialGradient210);fill-opacity:1;fill-rule:nonzero;stroke-width:0.241667;stroke-dasharray:none"
       id="path209"
       cx="25"
       cy="25"
       r="7.5531535" />
  </g>
</svg>
