<?xml version="1.0" encoding="UTF-8" standalone="no"?>
<!-- Created with Inkscape (http://www.inkscape.org/) -->

<svg
   width="512"
   height="512"
   viewBox="0 0 512 512"
   version="1.1"
   id="svg1"
   inkscape:version="1.4 (e7c3feb100, 2024-10-09)"
   sodipodi:docname="nine_patch_rect.svg"
   xmlns:inkscape="http://www.inkscape.org/namespaces/inkscape"
   xmlns:sodipodi="http://sodipodi.sourceforge.net/DTD/sodipodi-0.dtd"
   xmlns="http://www.w3.org/2000/svg"
   xmlns:svg="http://www.w3.org/2000/svg">
  <sodipodi:namedview
     id="namedview1"
     pagecolor="#ffffff"
     bordercolor="#000000"
     borderopacity="0.25"
     inkscape:showpageshadow="2"
     inkscape:pageopacity="0.0"
     inkscape:pagecheckerboard="0"
     inkscape:deskcolor="#d1d1d1"
     inkscape:document-units="px"
     inkscape:zoom="2.22"
     inkscape:cx="229.27928"
     inkscape:cy="261.93694"
     inkscape:window-width="1536"
     inkscape:window-height="902"
     inkscape:window-x="0"
     inkscape:window-y="0"
     inkscape:window-maximized="1"
     inkscape:current-layer="layer1" />
  <defs
     id="defs1" />
  <g
     inkscape:label="Layer 1"
     inkscape:groupmode="layer"
     id="layer1">
    <rect
       style="fill:#a18eec;stroke:#004d00;stroke-width:1.32683;fill-opacity:1"
       id="rect1"
       width="217.43518"
       height="217.43518"
       x="147.28241"
       y="147.28241"
       ry="3.4620495" />
    <path
       id="rect2"
       style="fill:#93ecec;stroke:#004d00;stroke-width:1.32683;fill-opacity:1"
       d="m 150.74512,147.28223 c -1.91798,0 -3.4629,1.54491 -3.4629,3.46289 v 210.50976 c 0,1.91798 1.54492,3.46289 3.4629,3.46289 h 210.51172 c 1.91797,0 3.46094,-1.54491 3.46094,-3.46289 V 150.74512 c 0,-1.91798 -1.54297,-3.46289 -3.46094,-3.46289 z m 42.64648,8.95507 h 125.21875 c 20.58345,0 37.1543,16.57086 37.1543,37.1543 v 125.2168 c 0,20.58344 -16.57085,37.1543 -37.1543,37.1543 H 193.3916 c -20.58344,0 -37.1543,-16.57086 -37.1543,-37.1543 V 193.3916 c 0,-20.58345 16.57086,-37.1543 37.1543,-37.1543 z" />
  </g>
</svg>
