<?xml version="1.0" encoding="UTF-8" standalone="no"?>
<!-- Created with Inkscape (http://www.inkscape.org/) -->

<svg
   width="50mm"
   height="50mm"
   viewBox="0 0 50 50"
   version="1.1"
   id="svg1"
   inkscape:version="1.4.2 (ebf0e940d0, 2025-05-08)"
   sodipodi:docname="slime.svg"
   xmlns:inkscape="http://www.inkscape.org/namespaces/inkscape"
   xmlns:sodipodi="http://sodipodi.sourceforge.net/DTD/sodipodi-0.dtd"
   xmlns:xlink="http://www.w3.org/1999/xlink"
   xmlns="http://www.w3.org/2000/svg"
   xmlns:svg="http://www.w3.org/2000/svg">
  <sodipodi:namedview
     id="namedview1"
     pagecolor="#ffffff"
     bordercolor="#000000"
     borderopacity="0.25"
     inkscape:showpageshadow="2"
     inkscape:pageopacity="0.0"
     inkscape:pagecheckerboard="0"
     inkscape:deskcolor="#d1d1d1"
     inkscape:document-units="mm"
     inkscape:zoom="0.5"
     inkscape:cx="459"
     inkscape:cy="253"
     inkscape:window-width="1360"
     inkscape:window-height="740"
     inkscape:window-x="0"
     inkscape:window-y="0"
     inkscape:window-maximized="1"
     inkscape:current-layer="layer1" />
  <defs
     id="defs1">
    <linearGradient
       id="linearGradient40"
       inkscape:collect="always">
      <stop
         style="stop-color:#ff6600;stop-opacity:0.89857727;"
         offset="0"
         id="stop41" />
      <stop
         style="stop-color:#ff6600;stop-opacity:1;"
         offset="1"
         id="stop42" />
    </linearGradient>
    <linearGradient
       id="linearGradient25"
       inkscape:collect="always">
      <stop
         style="stop-color:#21e81a;stop-opacity:1;"
         offset="0"
         id="stop25" />
      <stop
         style="stop-color:#16ab11;stop-opacity:1;"
         offset="1"
         id="stop26" />
    </linearGradient>
    <radialGradient
       inkscape:collect="always"
       xlink:href="#linearGradient25"
       id="radialGradient26"
       cx="248.70834"
       cy="267.22916"
       fx="248.70834"
       fy="267.22916"
       r="118.18055"
       gradientTransform="matrix(0.27906741,0,0,0.21034186,180.45821,178.50226)"
       gradientUnits="userSpaceOnUse" />
    <radialGradient
       inkscape:collect="always"
       xlink:href="#linearGradient40"
       id="radialGradient42"
       cx="249.59023"
       cy="175.50713"
       fx="249.59023"
       fy="175.50713"
       r="46.944263"
       gradientTransform="matrix(0.27906741,0,0,0.21495705,180.45821,171.38861)"
       gradientUnits="userSpaceOnUse" />
    <radialGradient
       inkscape:collect="always"
       xlink:href="#linearGradient40"
       id="radialGradient1"
       gradientUnits="userSpaceOnUse"
       gradientTransform="matrix(0.27906741,0,0,0.21495705,180.45821,171.38861)"
       cx="249.59023"
       cy="175.50713"
       fx="249.59023"
       fy="175.50713"
       r="46.944263" />
    <radialGradient
       inkscape:collect="always"
       xlink:href="#linearGradient25"
       id="radialGradient2"
       gradientUnits="userSpaceOnUse"
       gradientTransform="matrix(0.27906741,0,0,0.21034186,180.45821,178.50226)"
       cx="248.70834"
       cy="267.22916"
       fx="248.70834"
       fy="267.22916"
       r="118.18055" />
  </defs>
  <g
     inkscape:label="Layer 1"
     inkscape:groupmode="layer"
     id="layer1"
     transform="translate(-130.52779,-135.29085)">
    <path
       style="display:none;fill:#cccccc;fill-opacity:0.280789;stroke-width:0.175042"
       d="m 355.79524,277.30219 c 0,38.33124 -22.14347,69.18993 -49.64882,69.18993 h 34.20091 c 8.55817,0 15.44791,-10.18382 15.44791,-22.83403 z"
       id="path28" />
    <g
       id="g2"
       transform="matrix(0.29825133,0,0,0.29825133,80.871851,89.093412)">
      <path
         id="path2"
         style="fill:#333333;fill-opacity:1;stroke-width:0.0738365"
         d="m 250.23378,195.08611 a 3.0765242,3.1995854 0 0 0 -3.07648,3.19947 3.0765242,3.1995854 0 0 0 0.0291,0.42499 18.213026,12.306097 0 0 0 -15.28878,12.12722 18.213026,12.306097 0 0 0 18.21312,12.3062 18.213026,12.306097 0 0 0 18.21297,-12.3062 18.213026,12.306097 0 0 0 -15.04348,-12.11597 3.0765242,3.1995854 0 0 0 0.03,-0.43624 3.0765242,3.1995854 0 0 0 -3.07647,-3.19947 z" />
      <path
         id="path12"
         style="fill:url(#radialGradient1);fill-opacity:1;stroke-width:0.0531104"
         d="m 250.19923,199.02404 a 2.2129385,2.3014563 0 0 0 -2.2129,2.30138 2.2129385,2.3014563 0 0 0 0.0209,0.3057 13.100597,8.851754 0 0 0 -10.99719,8.72309 13.100597,8.851754 0 0 0 13.10066,8.85183 13.100597,8.851754 0 0 0 13.10056,-8.85183 13.100597,8.851754 0 0 0 -10.82075,-8.715 2.2129385,2.3014563 0 0 0 0.0216,-0.31379 2.2129385,2.3014563 0 0 0 -2.2129,-2.30138 z" />
      <path
         id="path13"
         style="baseline-shift:baseline;display:inline;overflow:visible;mix-blend-mode:normal;vector-effect:none;fill:#333333;stroke-width:0.328281;enable-background:accumulate;stop-color:#000000;stop-opacity:1"
         d="m 219.36277,259.68275 h 61.83494 c 5.83244,0 7.02525,5.68308 8.90786,10.06667 l 1.62002,3.77214 c 1.88261,4.38359 -4.69544,8.82482 -10.52788,8.82482 h -61.83494 c -5.83245,0 -12.17291,-4.31661 -10.52788,-8.82482 l 0.81001,-2.21984 c 1.64502,-4.50821 3.88542,-11.61897 9.71787,-11.61897 z"
         sodipodi:nodetypes="sssssssss" />
      <rect
         style="fill:#333333;fill-opacity:1;stroke-width:0.0800388"
         id="rect12"
         width="71.375359"
         height="60.669922"
         x="214.17691"
         y="207.45346"
         rx="9.7080164"
         ry="7.5970864" />
      <rect
         style="opacity:0.665;mix-blend-mode:normal;fill:#47af1a;fill-opacity:1;stroke-width:0.0738365"
         id="rect1"
         width="65.960678"
         height="55.869682"
         x="216.88426"
         y="209.85359"
         rx="8.9715471"
         ry="6.9960008" />
      <rect
         style="fill:url(#radialGradient2);fill-opacity:1;stroke-width:0.0696522"
         id="rect25"
         width="65.960678"
         height="49.716633"
         x="216.88426"
         y="209.85359"
         rx="8.9715471"
         ry="6.2255158" />
      <path
         id="rect3"
         style="baseline-shift:baseline;display:inline;overflow:visible;opacity:0.218;mix-blend-mode:lighten;vector-effect:none;fill:#4d4d4d;stroke-width:0.279067;enable-background:accumulate;stop-color:#000000;stop-opacity:1"
         d="m 222.10008,260.55439 h 56.36596 c 5.3166,0 6.40391,4.50533 8.12001,7.98048 l 1.47673,2.99042 c 1.71611,3.47515 -4.28014,6.996 -9.59674,6.996 h -56.36596 c -5.31659,0 -11.09627,-3.42206 -9.59674,-6.996 l 0.73837,-1.75981 c 1.49953,-3.57394 3.54178,-9.21109 8.85837,-9.21109 z"
         sodipodi:nodetypes="sssssssss" />
      <ellipse
         style="fill:#4d4d4d;fill-opacity:1;stroke-width:0.0738365"
         id="path3"
         cx="231.28249"
         cy="226.836"
         rx="7.5067191"
         ry="7.137536" />
      <ellipse
         style="fill:#4d4d4d;fill-opacity:1;stroke-width:0.0738365"
         id="ellipse3"
         cx="267.16702"
         cy="226.836"
         rx="7.5067191"
         ry="7.137536" />
      <path
         id="rect4"
         style="baseline-shift:baseline;display:inline;overflow:visible;vector-effect:none;fill:#333333;fill-opacity:1;stroke-width:0.232354;enable-background:accumulate;stop-color:#000000;stop-opacity:1"
         d="m 259.8865,256.47964 -20.75247,0.26392 c -0.55776,0.007 -1.00885,-1.23232 -1.0114,-2.77897 l -0.0122,-7.38349 c 4.20723,-10.00066 22.76037,-3.7224 22.76604,-0.28952 l 0.0122,7.38349 c 0.003,1.54664 -0.44441,2.79748 -1.00217,2.80457 z"
         sodipodi:nodetypes="sssssss" />
      <ellipse
         style="fill:#ffffff;fill-opacity:1;stroke-width:0.0414862"
         id="ellipse8"
         cx="230.6918"
         cy="227.42668"
         rx="4.0610118"
         ry="4.1651402" />
      <ellipse
         style="fill:#ffffff;fill-opacity:1;stroke-width:0.0432834"
         id="ellipse9"
         cx="266.57632"
         cy="227.42668"
         rx="4.4004903"
         ry="4.184073" />
      <path
         style="fill:#000000;fill-opacity:1;stroke-width:0.0188573"
         id="ellipse10"
         sodipodi:type="arc"
         sodipodi:cx="229.36276"
         sodipodi:cy="227.42668"
         sodipodi:rx="1.845914"
         sodipodi:ry="1.8932452"
         sodipodi:start="0.1727876"
         sodipodi:end="4.712389"
         sodipodi:arc-type="slice"
         d="m 231.18119,227.75219 a 1.845914,1.8932452 0 0 1 -2.03059,1.55519 1.845914,1.8932452 0 0 1 -1.63069,-1.98968 1.845914,1.8932452 0 0 1 1.84285,-1.78426 v 1.89324 z" />
      <path
         style="fill:#000000;fill-opacity:1;stroke-width:0.0188573"
         id="path10"
         sodipodi:type="arc"
         sodipodi:cx="265.09958"
         sodipodi:cy="227.42668"
         sodipodi:rx="1.845914"
         sodipodi:ry="1.8932452"
         sodipodi:start="0.1727876"
         sodipodi:end="4.712389"
         sodipodi:arc-type="slice"
         d="m 266.91801,227.75219 a 1.845914,1.8932452 0 0 1 -2.0306,1.55519 1.845914,1.8932452 0 0 1 -1.63068,-1.98968 1.845914,1.8932452 0 0 1 1.84285,-1.78426 v 1.89324 z" />
      <path
         id="path1"
         style="fill:#333333;fill-opacity:1;stroke-width:0.0738365"
         d="m 250.23378,195.08611 a 3.0765242,3.1995854 0 0 0 -3.07648,3.19947 3.0765242,3.1995854 0 0 0 0.0291,0.42499 18.213026,12.306097 0 0 0 -15.28878,12.12722 18.213026,12.306097 0 0 0 18.21312,12.3062 18.213026,12.306097 0 0 0 18.21297,-12.3062 18.213026,12.306097 0 0 0 -15.04348,-12.11597 3.0765242,3.1995854 0 0 0 0.03,-0.43624 3.0765242,3.1995854 0 0 0 -3.07647,-3.19947 z" />
      <path
         id="path4"
         style="fill:url(#radialGradient42);fill-opacity:1;stroke-width:0.0531104"
         d="m 250.19923,199.02404 a 2.2129385,2.3014563 0 0 0 -2.2129,2.30138 2.2129385,2.3014563 0 0 0 0.0209,0.3057 13.100597,8.851754 0 0 0 -10.99719,8.72309 13.100597,8.851754 0 0 0 13.10066,8.85183 13.100597,8.851754 0 0 0 13.10056,-8.85183 13.100597,8.851754 0 0 0 -10.82075,-8.715 2.2129385,2.3014563 0 0 0 0.0216,-0.31379 2.2129385,2.3014563 0 0 0 -2.2129,-2.30138 z" />
      <path
         id="path5"
         style="baseline-shift:baseline;display:inline;overflow:visible;mix-blend-mode:normal;vector-effect:none;fill:#333333;stroke-width:0.328281;enable-background:accumulate;stop-color:#000000;stop-opacity:1"
         d="m 219.36277,259.68275 h 61.83494 c 5.83244,0 7.02525,5.68308 8.90786,10.06667 l 1.62002,3.77214 c 1.88261,4.38359 -4.69544,8.82482 -10.52788,8.82482 h -61.83494 c -5.83245,0 -12.17291,-4.31661 -10.52788,-8.82482 l 0.81001,-2.21984 c 1.64502,-4.50821 3.88542,-11.61897 9.71787,-11.61897 z"
         sodipodi:nodetypes="sssssssss" />
      <rect
         style="fill:#333333;fill-opacity:1;stroke-width:0.0800388"
         id="rect5"
         width="71.375359"
         height="60.669922"
         x="214.17691"
         y="207.45346"
         rx="9.7080164"
         ry="7.5970864" />
      <rect
         style="opacity:0.665;mix-blend-mode:normal;fill:#47af1a;fill-opacity:1;stroke-width:0.0738365"
         id="rect6"
         width="65.960678"
         height="55.869682"
         x="216.88426"
         y="209.85359"
         rx="8.9715471"
         ry="6.9960008" />
      <rect
         style="fill:url(#radialGradient26);fill-opacity:1;stroke-width:0.0696522"
         id="rect7"
         width="65.960678"
         height="49.716633"
         x="216.88426"
         y="209.85359"
         rx="8.9715471"
         ry="6.2255158" />
      <path
         id="path7"
         style="baseline-shift:baseline;display:inline;overflow:visible;opacity:0.218;mix-blend-mode:lighten;vector-effect:none;fill:#4d4d4d;stroke-width:0.279067;enable-background:accumulate;stop-color:#000000;stop-opacity:1"
         d="m 222.10008,260.55439 h 56.36596 c 5.3166,0 6.40391,4.50533 8.12001,7.98048 l 1.47673,2.99042 c 1.71611,3.47515 -4.28014,6.996 -9.59674,6.996 h -56.36596 c -5.31659,0 -11.09627,-3.42206 -9.59674,-6.996 l 0.73837,-1.75981 c 1.49953,-3.57394 3.54178,-9.21109 8.85837,-9.21109 z"
         sodipodi:nodetypes="sssssssss" />
      <ellipse
         style="fill:#4d4d4d;fill-opacity:1;stroke-width:0.0738365"
         id="ellipse7"
         cx="231.28249"
         cy="226.836"
         rx="7.5067191"
         ry="7.137536" />
      <ellipse
         style="fill:#4d4d4d;fill-opacity:1;stroke-width:0.0738365"
         id="ellipse11"
         cx="267.16702"
         cy="226.836"
         rx="7.5067191"
         ry="7.137536" />
      <path
         id="path11"
         style="baseline-shift:baseline;display:inline;overflow:visible;vector-effect:none;fill:#333333;fill-opacity:1;stroke-width:0.232354;enable-background:accumulate;stop-color:#000000;stop-opacity:1"
         d="m 259.8865,256.47964 -20.75247,0.26392 c -0.55776,0.007 -1.00885,-1.23232 -1.0114,-2.77897 l -0.0122,-7.38349 c 4.20723,-10.00066 22.76037,-3.7224 22.76604,-0.28952 l 0.0122,7.38349 c 0.003,1.54664 -0.44441,2.79748 -1.00217,2.80457 z"
         sodipodi:nodetypes="sssssss" />
      <ellipse
         style="fill:#ffffff;fill-opacity:1;stroke-width:0.0414862"
         id="ellipse12"
         cx="230.6918"
         cy="227.42668"
         rx="4.0610118"
         ry="4.1651402" />
      <ellipse
         style="fill:#ffffff;fill-opacity:1;stroke-width:0.0432834"
         id="ellipse13"
         cx="266.57632"
         cy="227.42668"
         rx="4.4004903"
         ry="4.184073" />
      <path
         style="fill:#000000;fill-opacity:1;stroke-width:0.0188573"
         id="path14"
         sodipodi:type="arc"
         sodipodi:cx="230.6918"
         sodipodi:cy="227.42668"
         sodipodi:rx="1.845914"
         sodipodi:ry="1.8932452"
         sodipodi:start="0.1727876"
         sodipodi:end="4.712389"
         sodipodi:arc-type="slice"
         d="m 232.51023,227.75219 a 1.845914,1.8932452 0 0 1 -2.03059,1.55519 1.845914,1.8932452 0 0 1 -1.63069,-1.98968 1.845914,1.8932452 0 0 1 1.84285,-1.78426 v 1.89324 z" />
      <path
         style="fill:#000000;fill-opacity:1;stroke-width:0.0188573"
         id="path15"
         sodipodi:type="arc"
         sodipodi:cx="266.42865"
         sodipodi:cy="227.42668"
         sodipodi:rx="1.845914"
         sodipodi:ry="1.8932452"
         sodipodi:start="0.1727876"
         sodipodi:end="4.712389"
         sodipodi:arc-type="slice"
         d="m 268.24708,227.75219 a 1.845914,1.8932452 0 0 1 -2.03059,1.55519 1.845914,1.8932452 0 0 1 -1.63069,-1.98968 1.845914,1.8932452 0 0 1 1.84285,-1.78426 v 1.89324 z" />
    </g>
  </g>
</svg>
