<?xml version="1.0" encoding="UTF-8" standalone="no"?>
<!-- Created with Inkscape (http://www.inkscape.org/) -->

<svg
   width="500mm"
   height="500mm"
   viewBox="0 0 500 500"
   version="1.1"
   id="svg1"
   inkscape:version="1.4 (e7c3feb100, 2024-10-09)"
   sodipodi:docname="slime.svg"
   xmlns:inkscape="http://www.inkscape.org/namespaces/inkscape"
   xmlns:sodipodi="http://sodipodi.sourceforge.net/DTD/sodipodi-0.dtd"
   xmlns:xlink="http://www.w3.org/1999/xlink"
   xmlns="http://www.w3.org/2000/svg"
   xmlns:svg="http://www.w3.org/2000/svg">
  <sodipodi:namedview
     id="namedview1"
     pagecolor="#ffffff"
     bordercolor="#000000"
     borderopacity="0.25"
     inkscape:showpageshadow="2"
     inkscape:pageopacity="0.0"
     inkscape:pagecheckerboard="0"
     inkscape:deskcolor="#d1d1d1"
     inkscape:document-units="mm"
     inkscape:zoom="0.3"
     inkscape:cx="955"
     inkscape:cy="978.33333"
     inkscape:window-width="1536"
     inkscape:window-height="902"
     inkscape:window-x="0"
     inkscape:window-y="0"
     inkscape:window-maximized="1"
     inkscape:current-layer="layer1" />
  <defs
     id="defs1">
    <linearGradient
       id="linearGradient40"
       inkscape:collect="always">
      <stop
         style="stop-color:#ff6600;stop-opacity:0.89857727;"
         offset="0"
         id="stop41" />
      <stop
         style="stop-color:#ff6600;stop-opacity:1;"
         offset="1"
         id="stop42" />
    </linearGradient>
    <linearGradient
       id="linearGradient25"
       inkscape:collect="always">
      <stop
         style="stop-color:#21e81a;stop-opacity:1;"
         offset="0"
         id="stop25" />
      <stop
         style="stop-color:#16ab11;stop-opacity:1;"
         offset="1"
         id="stop26" />
    </linearGradient>
    <radialGradient
       inkscape:collect="always"
       xlink:href="#linearGradient25"
       id="radialGradient26"
       cx="248.70834"
       cy="267.22916"
       fx="248.70834"
       fy="267.22916"
       r="118.18055"
       gradientTransform="matrix(1,0,0,0.75373135,0,22.947636)"
       gradientUnits="userSpaceOnUse" />
    <radialGradient
       inkscape:collect="always"
       xlink:href="#linearGradient40"
       id="radialGradient42"
       cx="249.59022"
       cy="175.50712"
       fx="249.59022"
       fy="175.50712"
       r="46.944265"
       gradientTransform="matrix(1,0,0,0.77026928,0,-2.5431426)"
       gradientUnits="userSpaceOnUse" />
  </defs>
  <g
     inkscape:label="Layer 1"
     inkscape:groupmode="layer"
     id="layer1">
    <path
       id="path2"
       style="fill:#333333;fill-opacity:1;stroke-width:0.264583"
       d="m 250.03125,82.373612 a 11.024305,11.465278 0 0 0 -11.02413,11.464874 11.024305,11.465278 0 0 0 0.10438,1.522891 65.263893,44.097221 0 0 0 -54.78528,43.456233 65.263893,44.097221 0 0 0 65.26423,44.09757 65.263893,44.097221 0 0 0 65.26372,-44.09757 65.263893,44.097221 0 0 0 -53.90627,-43.415923 11.024305,11.465278 0 0 0 0.10748,-1.563201 11.024305,11.465278 0 0 0 -11.02413,-11.464874 z" />
    <path
       id="path12"
       style="fill:url(#radialGradient42);fill-opacity:1;stroke-width:0.190314"
       d="m 249.90744,96.484641 a 7.9297632,8.2469546 0 0 0 -7.92963,8.246689 7.9297632,8.2469546 0 0 0 0.0751,1.09543 46.944204,31.719053 0 0 0 -39.40696,31.258 46.944204,31.719053 0 0 0 46.94445,31.71931 46.944204,31.719053 0 0 0 46.94408,-31.71931 46.944204,31.719053 0 0 0 -38.77469,-31.22901 7.9297632,8.2469546 0 0 0 0.0773,-1.12442 7.9297632,8.2469546 0 0 0 -7.92964,-8.246689 z" />
    <path
       id="path13"
       style="baseline-shift:baseline;display:inline;overflow:visible;mix-blend-mode:normal;vector-effect:none;fill:#333333;stroke-width:1.17635;enable-background:accumulate;stop-color:#000000;stop-opacity:1"
       d="m 139.40919,313.84687 h 221.57709 c 20.89976,0 25.17402,20.36453 31.92011,36.07253 l 5.8051,13.51694 c 6.74609,15.70799 -16.82545,31.62254 -37.72521,31.62254 H 139.40919 c -20.89977,0 -43.619941,-15.46798 -37.72521,-31.62254 l 2.90255,-7.95448 c 5.89472,-16.15456 13.92289,-41.63499 34.82266,-41.63499 z"
       sodipodi:nodetypes="sssssssss" />
    <rect
       style="fill:#333333;fill-opacity:1;stroke-width:0.286808"
       id="rect12"
       width="255.76387"
       height="217.40239"
       x="120.82639"
       y="126.69032"
       rx="34.787354"
       ry="27.223124" />
    <rect
       style="opacity:0.665;mix-blend-mode:normal;fill:#47af1a;fill-opacity:1;stroke-width:0.264583"
       id="rect1"
       width="236.3611"
       height="200.20139"
       x="130.52779"
       y="135.29085"
       rx="32.148315"
       ry="25.069214" />
    <rect
       style="fill:url(#radialGradient26);fill-opacity:1;stroke-width:0.249589"
       id="rect25"
       width="236.3611"
       height="178.15277"
       x="130.52779"
       y="135.29085"
       rx="32.148315"
       ry="22.308287" />
    <path
       id="rect3"
       style="baseline-shift:baseline;display:inline;overflow:visible;opacity:0.218;mix-blend-mode:lighten;vector-effect:none;fill:#4d4d4d;enable-background:accumulate;stop-color:#000000;stop-opacity:1"
       d="m 149.21799,316.97024 h 201.97973 c 19.05129,0 22.94751,16.14426 29.09694,28.59699 l 5.29167,10.71574 c 6.14943,12.45273 -15.33732,25.06921 -34.38861,25.06921 H 149.21799 c -19.05129,0 -39.76198,-12.26246 -34.38861,-25.06921 l 2.64584,-6.30602 c 5.37336,-12.80675 12.69148,-33.00671 31.74277,-33.00671 z"
       sodipodi:nodetypes="sssssssss" />
    <ellipse
       style="fill:#4d4d4d;fill-opacity:1;stroke-width:0.264583"
       id="path3"
       cx="182.12187"
       cy="196.14502"
       rx="26.899303"
       ry="25.576387" />
    <ellipse
       style="fill:#4d4d4d;fill-opacity:1;stroke-width:0.264583"
       id="ellipse3"
       cx="310.70923"
       cy="196.14502"
       rx="26.899303"
       ry="25.576387" />
    <path
       id="rect4"
       style="baseline-shift:baseline;display:inline;overflow:visible;vector-effect:none;fill:#333333;fill-opacity:1;stroke-width:0.832608;enable-background:accumulate;stop-color:#000000;stop-opacity:1"
       d="m 284.62045,302.36896 -74.36362,0.9457 c -1.99867,0.0254 -3.61508,-4.41586 -3.62424,-9.95804 l -0.0437,-26.45774 c 15.07604,-35.83602 81.55866,-13.33872 81.57901,-1.03746 l 0.0437,26.45774 c 0.009,5.54218 -1.59249,10.02438 -3.59115,10.0498 z"
       sodipodi:nodetypes="sssssss" />
    <ellipse
       style="fill:#ffffff;fill-opacity:1;stroke-width:0.14866"
       id="ellipse8"
       cx="180.00523"
       cy="198.26166"
       rx="14.552081"
       ry="14.925212" />
    <ellipse
       style="fill:#ffffff;fill-opacity:1;stroke-width:0.1551"
       id="ellipse9"
       cx="308.59253"
       cy="198.26166"
       rx="15.768557"
       ry="14.993054" />
    <path
       style="fill:#000000;fill-opacity:1;stroke-width:0.0675727"
       id="ellipse10"
       sodipodi:type="arc"
       sodipodi:cx="175.2428"
       sodipodi:cy="198.26166"
       sodipodi:rx="6.6145811"
       sodipodi:ry="6.7841859"
       sodipodi:start="0.1727876"
       sodipodi:end="4.712389"
       sodipodi:arc-type="slice"
       d="m 181.75888,199.42806 a 6.6145811,6.7841859 0 0 1 -7.27634,5.57282 6.6145811,6.7841859 0 0 1 -5.84336,-7.12975 6.6145811,6.7841859 0 0 1 6.60362,-6.39366 v 6.78419 z" />
    <path
       style="fill:#000000;fill-opacity:1;stroke-width:0.0675727"
       id="path10"
       sodipodi:type="arc"
       sodipodi:cx="303.30078"
       sodipodi:cy="198.26166"
       sodipodi:rx="6.6145811"
       sodipodi:ry="6.7841859"
       sodipodi:start="0.1727876"
       sodipodi:end="4.712389"
       sodipodi:arc-type="slice"
       d="m 309.81687,199.42806 a 6.6145811,6.7841859 0 0 1 -7.27635,5.57282 6.6145811,6.7841859 0 0 1 -5.84335,-7.12975 6.6145811,6.7841859 0 0 1 6.60361,-6.39366 v 6.78419 z" />
    <path
       style="display:none;fill:#cccccc;fill-opacity:0.280789;stroke-width:0.175042"
       d="m 355.79524,277.30219 c 0,38.33124 -22.14347,69.18993 -49.64882,69.18993 h 34.20091 c 8.55817,0 15.44791,-10.18382 15.44791,-22.83403 z"
       id="path28" />
    <path
       id="path1"
       style="fill:#333333;fill-opacity:1;stroke-width:0.264583"
       d="m 250.03125,82.373612 a 11.024305,11.465278 0 0 0 -11.02413,11.464874 11.024305,11.465278 0 0 0 0.10438,1.522891 65.263893,44.097221 0 0 0 -54.78528,43.456233 65.263893,44.097221 0 0 0 65.26423,44.09757 65.263893,44.097221 0 0 0 65.26372,-44.09757 65.263893,44.097221 0 0 0 -53.90627,-43.415923 11.024305,11.465278 0 0 0 0.10748,-1.563201 11.024305,11.465278 0 0 0 -11.02413,-11.464874 z" />
    <path
       id="path4"
       style="fill:url(#radialGradient42);fill-opacity:1;stroke-width:0.190314"
       d="m 249.90744,96.484641 a 7.9297632,8.2469546 0 0 0 -7.92963,8.246689 7.9297632,8.2469546 0 0 0 0.0751,1.09543 46.944204,31.719053 0 0 0 -39.40696,31.258 46.944204,31.719053 0 0 0 46.94445,31.71931 46.944204,31.719053 0 0 0 46.94408,-31.71931 46.944204,31.719053 0 0 0 -38.77469,-31.22901 7.9297632,8.2469546 0 0 0 0.0773,-1.12442 7.9297632,8.2469546 0 0 0 -7.92964,-8.246689 z" />
    <path
       id="path5"
       style="baseline-shift:baseline;display:inline;overflow:visible;mix-blend-mode:normal;vector-effect:none;fill:#333333;stroke-width:1.17635;enable-background:accumulate;stop-color:#000000;stop-opacity:1"
       d="m 139.40919,313.84687 h 221.57709 c 20.89976,0 25.17402,20.36453 31.92011,36.07253 l 5.8051,13.51694 c 6.74609,15.70799 -16.82545,31.62254 -37.72521,31.62254 H 139.40919 c -20.89977,0 -43.619941,-15.46798 -37.72521,-31.62254 l 2.90255,-7.95448 c 5.89472,-16.15456 13.92289,-41.63499 34.82266,-41.63499 z"
       sodipodi:nodetypes="sssssssss" />
    <rect
       style="fill:#333333;fill-opacity:1;stroke-width:0.286808"
       id="rect5"
       width="255.76387"
       height="217.40239"
       x="120.82639"
       y="126.69032"
       rx="34.787354"
       ry="27.223124" />
    <rect
       style="opacity:0.665;mix-blend-mode:normal;fill:#47af1a;fill-opacity:1;stroke-width:0.264583"
       id="rect6"
       width="236.3611"
       height="200.20139"
       x="130.52779"
       y="135.29085"
       rx="32.148315"
       ry="25.069214" />
    <rect
       style="fill:url(#radialGradient26);fill-opacity:1;stroke-width:0.249589"
       id="rect7"
       width="236.3611"
       height="178.15277"
       x="130.52779"
       y="135.29085"
       rx="32.148315"
       ry="22.308287" />
    <path
       id="path7"
       style="baseline-shift:baseline;display:inline;overflow:visible;opacity:0.218;mix-blend-mode:lighten;vector-effect:none;fill:#4d4d4d;enable-background:accumulate;stop-color:#000000;stop-opacity:1"
       d="m 149.21799,316.97024 h 201.97973 c 19.05129,0 22.94751,16.14426 29.09694,28.59699 l 5.29167,10.71574 c 6.14943,12.45273 -15.33732,25.06921 -34.38861,25.06921 H 149.21799 c -19.05129,0 -39.76198,-12.26246 -34.38861,-25.06921 l 2.64584,-6.30602 c 5.37336,-12.80675 12.69148,-33.00671 31.74277,-33.00671 z"
       sodipodi:nodetypes="sssssssss" />
    <ellipse
       style="fill:#4d4d4d;fill-opacity:1;stroke-width:0.264583"
       id="ellipse7"
       cx="182.12187"
       cy="196.14502"
       rx="26.899303"
       ry="25.576387" />
    <ellipse
       style="fill:#4d4d4d;fill-opacity:1;stroke-width:0.264583"
       id="ellipse11"
       cx="310.70923"
       cy="196.14502"
       rx="26.899303"
       ry="25.576387" />
    <path
       id="path11"
       style="baseline-shift:baseline;display:inline;overflow:visible;vector-effect:none;fill:#333333;fill-opacity:1;stroke-width:0.832608;enable-background:accumulate;stop-color:#000000;stop-opacity:1"
       d="m 284.62045,302.36896 -74.36362,0.9457 c -1.99867,0.0254 -3.61508,-4.41586 -3.62424,-9.95804 l -0.0437,-26.45774 c 15.07604,-35.83602 81.55866,-13.33872 81.57901,-1.03746 l 0.0437,26.45774 c 0.009,5.54218 -1.59249,10.02438 -3.59115,10.0498 z"
       sodipodi:nodetypes="sssssss" />
    <ellipse
       style="fill:#ffffff;fill-opacity:1;stroke-width:0.14866"
       id="ellipse12"
       cx="180.00523"
       cy="198.26166"
       rx="14.552081"
       ry="14.925212" />
    <ellipse
       style="fill:#ffffff;fill-opacity:1;stroke-width:0.1551"
       id="ellipse13"
       cx="308.59253"
       cy="198.26166"
       rx="15.768557"
       ry="14.993054" />
    <path
       style="fill:#000000;fill-opacity:1;stroke-width:0.0675727"
       id="path14"
       sodipodi:type="arc"
       sodipodi:cx="175.2428"
       sodipodi:cy="198.26166"
       sodipodi:rx="6.6145811"
       sodipodi:ry="6.7841859"
       sodipodi:start="0.1727876"
       sodipodi:end="4.712389"
       sodipodi:arc-type="slice"
       d="m 181.75888,199.42806 a 6.6145811,6.7841859 0 0 1 -7.27634,5.57282 6.6145811,6.7841859 0 0 1 -5.84336,-7.12975 6.6145811,6.7841859 0 0 1 6.60362,-6.39366 v 6.78419 z" />
    <path
       style="fill:#000000;fill-opacity:1;stroke-width:0.0675727"
       id="path15"
       sodipodi:type="arc"
       sodipodi:cx="303.30078"
       sodipodi:cy="198.26166"
       sodipodi:rx="6.6145811"
       sodipodi:ry="6.7841859"
       sodipodi:start="0.1727876"
       sodipodi:end="4.712389"
       sodipodi:arc-type="slice"
       d="m 309.81687,199.42806 a 6.6145811,6.7841859 0 0 1 -7.27635,5.57282 6.6145811,6.7841859 0 0 1 -5.84335,-7.12975 6.6145811,6.7841859 0 0 1 6.60361,-6.39366 v 6.78419 z" />
  </g>
</svg>
